<?xml version="1.0" standalone="no"?>
<!DOCTYPE svg PUBLIC "-//W3C//DTD SVG 20010904//EN"
 "http://www.w3.org/TR/2001/REC-SVG-20010904/DTD/svg10.dtd">
<svg version="1.0" xmlns="http://www.w3.org/2000/svg"
 width="194.000000pt" height="216.000000pt" viewBox="0 0 194.000000 216.000000"
 preserveAspectRatio="xMidYMid meet">

<g transform="translate(0.000000,216.000000) scale(0.100000,-0.100000)"
fill="current" stroke="current">
<path d="M837 2138 c-13 -13 -30 -33 -38 -46 -15 -21 -18 -21 -45 -7 -41 21
-112 19 -151 -5 -40 -24 -62 -58 -70 -106 -7 -41 -63 -103 -94 -104 -9 0 -31
-13 -47 -28 -39 -37 -50 -90 -29 -143 14 -36 14 -40 -3 -49 -10 -5 -20 -16
-24 -25 -5 -13 135 -1180 149 -1242 l5 -23 485 0 c266 0 486 3 488 8 3 4 40
288 83 631 l78 624 -27 23 c-23 20 -26 27 -17 43 15 28 12 97 -5 130 -16 32
-70 81 -88 81 -7 0 -19 15 -27 33 -8 17 -29 41 -47 52 -17 11 -37 29 -43 41
-30 53 -114 71 -173 36 l-34 -19 -11 29 c-8 23 -16 29 -34 26 -17 -2 -22 -9
-20 -23 2 -11 5 -40 9 -65 7 -54 18 -70 49 -70 18 0 27 9 38 35 29 69 102 72
136 6 15 -29 27 -40 47 -43 22 -2 29 -10 38 -42 9 -29 18 -42 36 -47 66 -17
101 -75 80 -131 -9 -24 -14 -26 -44 -21 -23 3 -53 -3 -96 -20 -62 -25 -63 -25
-94 -7 -55 33 -105 35 -160 7 l-49 -25 -36 21 c-47 28 -122 28 -159 0 l-28
-20 -40 21 c-24 12 -58 21 -85 21 -51 -1 -60 7 -60 52 0 42 36 83 80 92 26 5
36 13 38 29 5 31 -21 37 -73 17 -80 -30 -120 -106 -97 -183 16 -50 2 -58 -49
-31 -28 14 -63 23 -97 23 -59 2 -72 12 -72 63 0 37 29 63 72 63 21 0 31 7 38
25 6 17 17 25 33 25 35 0 44 16 39 70 -4 44 -2 52 26 80 47 47 100 39 153 -24
23 -26 29 -29 43 -17 9 7 16 23 16 35 0 32 35 83 71 101 20 11 49 16 83 14 28
-2 57 0 64 4 30 20 5 27 -88 27 -91 0 -103 -2 -123 -22z m-268 -525 c25 -19
26 -26 38 -174 42 -556 53 -664 66 -674 21 -15 28 -65 9 -72 -12 -5 -14 -20
-8 -90 l6 -83 -80 0 c-49 0 -80 4 -80 11 0 5 -29 243 -65 527 -36 285 -65 526
-65 535 0 45 126 59 179 20z m458 10 l36 -17 -5 -218 c-3 -120 -7 -220 -10
-223 -2 -3 -18 1 -35 7 -24 9 -41 9 -69 0 -21 -6 -39 -10 -40 -9 -1 1 -5 102
-9 224 l-7 221 29 16 c37 20 67 20 110 -1z m509 -2 l30 -18 -67 -539 c-38
-297 -68 -540 -69 -541 0 -2 -36 -3 -79 -3 l-80 0 5 32 c5 38 42 508 51 649 4
67 2 98 -6 103 -16 10 -14 57 5 70 11 8 18 42 25 115 5 57 12 108 16 113 10
17 66 37 103 38 19 0 49 -8 66 -19z m-494 -498 c35 -38 58 -86 58 -123 0 -33
-6 -36 -34 -15 -31 23 -83 19 -111 -10 -14 -13 -25 -32 -25 -41 0 -14 3 -13
18 4 18 22 79 36 99 24 19 -12 43 -78 43 -117 0 -43 -26 -71 -75 -81 -27 -5
-33 -9 -23 -16 10 -6 3 -18 -31 -48 -54 -49 -105 -57 -143 -23 -37 33 -10 114
45 139 l32 14 -44 -2 c-41 -3 -46 0 -64 30 -40 67 -19 181 43 237 28 26 105
53 151 54 26 1 42 -6 61 -26z m152 -158 c35 -32 37 -97 4 -119 -38 -23 -69
-30 -62 -13 3 8 -1 34 -9 57 -11 33 -12 50 -3 71 13 35 35 37 70 4z m-154
-335 l0 -110 -65 0 -65 0 0 55 c0 51 2 55 33 71 40 21 87 64 87 81 0 7 2 13 5
13 3 0 5 -49 5 -110z"/>
<path d="M937 1973 c-16 -15 -6 -43 18 -49 13 -3 27 -16 31 -27 8 -26 23 -37
41 -30 16 6 17 52 0 74 -23 30 -74 49 -90 32z"/>
<path d="M1169 1840 c-36 -35 -38 -83 -3 -88 14 -2 24 6 35 30 8 20 22 34 36
36 12 2 24 10 27 18 17 45 -52 47 -95 4z"/>
<path d="M109 1400 c-57 -55 -64 -65 -64 -102 0 -50 38 -88 90 -88 18 0 46 -5
61 -10 78 -30 159 70 109 136 -8 10 -15 29 -15 41 0 34 -40 73 -81 79 -34 6
-41 2 -100 -56z m119 -17 c5 -10 7 -24 5 -31 -3 -7 3 -22 12 -32 38 -41 -4
-92 -46 -54 -15 14 -24 15 -43 6 -54 -24 -77 40 -23 66 15 7 27 19 27 26 0 34
53 49 68 19z"/>
<path d="M1774 1090 c-12 -5 -25 -13 -29 -19 -3 -6 -18 -11 -31 -11 -34 0 -84
-51 -84 -85 0 -46 36 -94 71 -95 8 0 26 -11 39 -25 32 -34 91 -35 124 -2 18
18 24 38 29 97 7 85 -8 123 -56 140 -35 12 -35 12 -63 0z m64 -78 c2 -13 -2
-29 -8 -37 -8 -10 -8 -19 -1 -34 16 -28 14 -39 -8 -51 -23 -12 -51 -3 -51 15
0 17 -15 27 -44 30 -11 1 -24 3 -28 4 -5 0 -8 14 -8 30 0 31 16 43 47 35 11
-3 26 3 38 16 24 27 59 23 63 -8z"/>
</g>
</svg>
