<?xml version="1.0" standalone="no"?>
<!DOCTYPE svg PUBLIC "-//W3C//DTD SVG 20010904//EN"
 "http://www.w3.org/TR/2001/REC-SVG-20010904/DTD/svg10.dtd">
<svg version="1.0" xmlns="http://www.w3.org/2000/svg"
 height="1000px" width="1000px" viewBox="0 0 407.000000 407.000000"
 preserveAspectRatio="xMidYMid meet">

<g transform="translate(0.000000,407.000000) scale(0.100000,-0.100000)"
fill="#fff" stroke="none">
<path d="M2243 2843 c-16 -16 -34 -37 -40 -47 -10 -18 -12 -18 -34 -2 -29 20
-110 21 -149 1 -36 -19 -67 -58 -75 -95 l-6 -29 -36 24 c-103 71 -255 27 -315
-89 -17 -32 -20 -53 -16 -110 8 -115 69 -221 144 -248 25 -9 34 -18 34 -35 0
-13 -2 -23 -5 -23 -18 0 -85 35 -110 58 l-30 27 25 -28 c14 -16 41 -37 60 -47
67 -34 66 -31 105 -355 23 -189 42 -313 53 -335 9 -19 27 -57 40 -85 l23 -50
-5 51 c-3 29 -15 81 -28 118 -18 53 -21 71 -12 94 9 22 2 97 -29 347 l-39 319
22 18 c32 26 66 32 109 20 76 -23 72 -10 97 -318 13 -154 23 -282 24 -286 0
-4 30 7 66 23 77 35 89 33 152 -25 l45 -41 -6 307 -6 307 27 21 c31 25 77 22
119 -5 l25 -17 -3 -199 c-4 -195 -4 -199 16 -192 82 26 153 20 206 -17 43 -31
49 -26 49 45 0 37 -4 65 -10 65 -5 0 -10 16 -10 35 0 23 5 35 14 35 14 0 18
20 31 163 l7 69 45 20 c50 22 95 20 135 -6 l24 -16 -12 -97 c-7 -54 -13 -101
-14 -104 0 -3 13 -4 29 -1 35 5 37 13 47 138 6 89 6 92 -18 110 -23 17 -24 20
-11 57 10 29 11 48 3 78 -13 46 -63 107 -94 115 -14 3 -27 18 -35 39 -7 21
-23 39 -44 49 -18 8 -39 26 -46 39 -28 52 -116 74 -171 42 -33 -19 -35 -19
-48 10 -13 28 -47 34 -56 9 -3 -8 -1 -24 4 -34 6 -10 10 -32 10 -49 0 -47 9
-61 41 -61 23 0 31 6 43 35 28 66 100 66 136 0 9 -16 25 -32 36 -34 29 -5 43
-20 52 -54 6 -22 17 -33 37 -40 64 -20 96 -76 76 -130 -9 -24 -16 -27 -56 -27
-26 0 -68 -9 -94 -21 l-48 -20 -39 20 c-50 27 -118 27 -167 1 l-37 -20 -40 20
c-50 26 -115 26 -158 0 -31 -19 -34 -19 -58 -3 -14 9 -53 19 -87 22 l-62 6 -3
38 c-4 51 17 82 70 99 31 11 43 20 43 34 0 15 -8 20 -35 22 -51 4 -100 -32
-124 -91 -17 -41 -18 -54 -9 -90 7 -23 8 -46 3 -51 -5 -5 -27 1 -52 13 -27 13
-64 21 -94 21 -28 0 -55 5 -62 12 -13 13 -16 67 -4 84 11 16 48 34 72 34 13 0
24 9 30 25 7 19 17 25 40 25 32 0 34 3 31 67 -3 52 12 81 52 98 45 19 84 8
115 -31 37 -47 59 -44 73 9 21 82 77 121 167 115 47 -2 57 0 60 15 3 15 -7 17
-96 17 -95 0 -101 -1 -129 -27z m-439 -282 c3 -4 -3 -16 -14 -26 -11 -10 -23
-37 -27 -59 -5 -32 -8 -36 -14 -21 -15 38 -10 93 9 104 21 13 39 14 46 2z"/>
<path d="M1310 2768 c-36 -11 -71 -26 -79 -33 -11 -11 2 -57 84 -292 54 -153
104 -292 111 -310 l13 -32 45 13 c25 8 46 11 46 8 -1 -27 -65 -65 -101 -60
-16 3 -29 1 -29 -4 0 -4 11 -8 25 -8 22 0 25 -4 25 -37 0 -43 36 -102 65 -107
11 -3 45 -10 76 -16 64 -14 85 -7 118 39 24 34 27 89 6 117 -8 10 -15 29 -15
40 0 34 -38 74 -70 74 -31 0 -23 -19 -177 425 -36 105 -69 193 -72 197 -3 3
-35 -3 -71 -14z m328 -675 c5 -10 7 -24 5 -31 -3 -7 3 -22 12 -32 23 -25 16
-64 -13 -68 -12 -2 -29 4 -37 12 -13 12 -21 13 -40 4 -19 -8 -28 -8 -40 2 -24
20 -18 50 13 61 17 6 32 21 39 39 13 34 47 41 61 13z"/>
<path d="M2347 2684 c-16 -16 -6 -45 18 -54 14 -5 30 -21 35 -36 13 -33 44
-29 48 7 2 17 -5 36 -20 52 -24 27 -68 44 -81 31z"/>
<path d="M2579 2551 c-31 -32 -38 -71 -15 -90 11 -9 18 -8 30 4 9 9 16 23 16
31 0 8 16 22 36 30 25 11 34 20 30 30 -3 9 -6 18 -6 20 0 2 -14 4 -31 4 -20 0
-40 -10 -60 -29z"/>
<path d="M515 2483 c-53 -12 -232 -77 -243 -88 -12 -10 5 -65 94 -320 l108
-307 33 5 c19 3 58 17 88 31 l54 25 -29 85 -29 86 42 22 c69 34 105 67 128
115 41 85 21 221 -44 292 -44 48 -129 71 -202 54z m70 -203 c8 -16 15 -39 15
-51 0 -25 -36 -69 -56 -69 -15 0 -58 125 -49 140 3 5 22 10 40 10 28 0 37 -6
50 -30z"/>
<path d="M1005 2466 c-134 -42 -173 -92 -121 -153 l24 -28 61 30 c57 27 63 28
78 12 20 -20 24 -17 -60 -56 -46 -22 -75 -43 -88 -64 -45 -74 -8 -186 74 -226
24 -12 54 -21 66 -21 47 0 106 25 142 61 35 35 38 36 76 26 30 -8 46 -7 68 4
26 12 30 20 33 61 2 29 -3 59 -13 78 -14 26 -21 31 -47 28 -31 -3 -32 -2 -59
80 -35 105 -61 146 -103 166 -40 19 -76 19 -131 2z m98 -343 c-25 -19 -42 -16
-55 11 -13 31 -5 54 24 65 20 7 25 4 36 -28 11 -32 11 -37 -5 -48z"/>
<path d="M3410 2451 c-36 -15 -64 -33 -62 -40 3 -13 166 -381 183 -413 9 -17
12 -17 62 3 28 11 56 24 61 29 5 6 -23 99 -69 230 -58 164 -82 220 -94 220 -9
0 -45 -13 -81 -29z"/>
<path d="M3162 2353 c-35 -14 -66 -31 -68 -37 -2 -6 38 -105 91 -221 104 -232
95 -222 178 -186 l46 20 -55 158 c-31 87 -66 187 -78 223 -13 36 -29 66 -37
67 -8 1 -43 -9 -77 -24z"/>
<path d="M2947 2056 c-106 -36 -153 -93 -144 -174 9 -82 67 -130 167 -139 65
-6 79 -15 60 -38 -9 -11 -33 -15 -81 -15 l-69 0 0 -44 c0 -67 25 -91 92 -90
118 1 237 75 252 156 9 48 -9 114 -38 143 -24 23 -101 45 -162 45 -22 0 -37 6
-41 15 -8 22 -1 26 59 40 l53 11 3 49 c2 32 -1 51 -10 56 -22 15 -70 9 -141
-15z"/>
<path d="M1278 2003 c-37 -3 -61 -10 -70 -20 -11 -14 -11 -15 2 -8 8 5 39 10
68 11 29 1 58 6 65 13 6 6 7 10 2 9 -6 -1 -36 -3 -67 -5z"/>
<path d="M664 1984 c-18 -14 -18 -15 4 -4 12 6 22 13 22 15 0 8 -5 6 -26 -11z"/>
<path d="M3615 1963 c-33 -13 -64 -28 -68 -32 -8 -8 40 -141 50 -141 18 0 153
64 153 73 0 30 -46 127 -60 126 -8 0 -42 -12 -75 -26z"/>
<path d="M939 1936 c22 -27 95 -39 150 -26 28 7 54 17 58 23 4 7 0 8 -13 2
-37 -17 -129 -17 -169 -1 -29 12 -35 13 -26 2z"/>
<path d="M2491 1876 c-47 -17 -111 -73 -127 -112 -48 -116 26 -303 141 -355
93 -43 224 3 277 96 63 110 -3 304 -124 366 -42 22 -115 24 -167 5z m98 -156
c21 -11 51 -79 51 -114 0 -56 -61 -60 -97 -7 -49 72 -17 155 46 121z"/>
<path d="M2560 1670 c0 -24 21 -70 32 -70 12 0 10 16 -6 55 -17 39 -26 45 -26
15z"/>
<path d="M3371 1864 c-94 -36 -93 -34 -63 -109 14 -36 29 -65 34 -65 12 0 158
61 158 66 0 11 -54 134 -59 134 -3 -1 -35 -12 -70 -26z"/>
<path d="M3680 1775 c-30 -13 -66 -25 -80 -26 -18 -1 -20 -3 -7 -6 21 -6 147
35 147 48 0 5 -1 9 -2 8 -2 0 -28 -11 -58 -24z"/>
<path d="M590 1754 c-30 -13 -68 -24 -84 -24 -22 0 -27 -3 -19 -11 9 -9 29 -6
78 12 36 13 71 29 77 36 6 7 9 12 7 12 -2 -1 -29 -12 -59 -25z"/>
<path d="M2035 1685 c-87 -35 -131 -59 -133 -70 -4 -18 24 -101 40 -122 7 -8
29 -2 84 23 40 18 74 31 74 29 0 -3 -20 -64 -45 -137 l-46 -133 44 -42 45 -42
151 61 152 61 -7 31 c-9 47 -42 116 -54 116 -6 0 -43 -16 -82 -36 -59 -30 -70
-33 -66 -17 3 10 23 76 44 147 l38 128 -34 29 c-19 16 -44 28 -55 28 -11 -1
-78 -25 -150 -54z"/>
<path d="M3268 1724 c-9 -14 -22 -78 -19 -92 3 -19 -18 -42 -40 -42 -11 0 -36
-11 -57 -25 -76 -50 -175 -69 -238 -45 -19 8 -29 8 -34 0 -3 -5 -12 -63 -19
-127 -19 -178 -10 -163 -101 -163 l-79 0 5 35 c2 19 6 51 9 71 4 35 3 36 -23
30 -76 -19 -129 -18 -176 2 l-46 21 0 -80 0 -80 -72 2 c-66 2 -84 -3 -177 -41
-100 -42 -105 -43 -131 -28 -27 16 -28 15 -37 -16 -10 -38 -61 -66 -119 -66
-25 0 -47 -6 -54 -15 -10 -12 -9 -15 7 -15 10 0 24 -5 31 -12 8 -8 28 -8 81 0
45 8 216 12 474 12 335 0 407 2 416 14 7 8 23 101 37 207 13 106 29 198 35
205 14 17 121 37 218 40 94 3 120 18 143 81 8 21 19 33 31 33 20 0 157 56 171
70 5 6 -22 -4 -60 -20 -38 -16 -84 -30 -102 -30 -29 0 -35 5 -51 42 -9 23 -20
38 -23 32z"/>
<path d="M2282 1569 c-31 -105 -29 -115 16 -83 18 12 22 24 21 67 -1 93 -13
98 -37 16z"/>
<path d="M1657 1539 c-73 -17 -177 -81 -177 -108 0 -24 38 -81 54 -81 8 0 34
11 57 25 50 28 84 32 93 10 4 -11 -9 -22 -47 -39 -101 -44 -143 -113 -116
-193 18 -57 38 -82 80 -104 80 -40 198 -9 234 62 13 24 19 28 35 19 10 -5 35
-10 54 -10 70 0 97 66 57 140 -15 29 -24 35 -51 35 -31 0 -33 3 -64 80 -18 45
-40 93 -50 107 -34 52 -92 73 -159 57z m83 -295 c16 -40 12 -53 -17 -60 -43
-11 -69 38 -37 70 23 23 43 20 54 -10z"/>
<path d="M1219 1364 c-29 -8 -58 -27 -76 -48 -27 -30 -35 -33 -84 -32 -63 0
-135 -35 -158 -77 -12 -23 -17 -25 -71 -20 -50 5 -60 3 -80 -17 -19 -19 -21
-29 -16 -64 8 -52 36 -91 67 -91 20 0 29 -16 77 -135 29 -74 58 -139 62 -144
10 -10 124 29 139 48 7 9 -6 55 -46 154 l-57 143 22 21 c31 31 43 16 103 -135
28 -73 56 -136 60 -141 10 -11 149 41 149 55 0 5 -25 73 -57 151 l-56 141 23
19 c23 18 24 18 40 1 10 -10 41 -78 70 -151 51 -130 53 -133 79 -127 49 12
121 47 121 59 0 26 -121 310 -146 343 -25 33 -78 64 -106 62 -7 0 -34 -7 -59
-15z"/>
<path d="M1777 1004 c-44 -24 -117 -29 -161 -10 -45 19 -46 19 -46 8 0 -13 71
-32 116 -32 36 0 124 32 124 45 0 7 -1 7 -33 -11z"/>
<path d="M1480 894 c-30 -13 -71 -24 -91 -24 -22 0 -39 -6 -42 -14 -4 -10 4
-11 40 -5 46 9 153 53 153 63 0 4 -1 5 -2 5 -2 -1 -28 -12 -58 -25z"/>
<path d="M1260 805 c-30 -13 -70 -24 -88 -25 -21 0 -31 -4 -27 -11 4 -6 20 -7
38 -3 38 8 137 51 137 58 0 4 -1 6 -2 5 -2 0 -28 -11 -58 -24z"/>
</g>
</svg>
